<svg xmlns="http://www.w3.org/2000/svg" viewBox="0 0 1080 1920" preserveAspectRatio="xMidYMid slice"><defs><linearGradient id="sky" x1="0" y1="0" x2="0" y2="1"><stop offset="0" stop-color="#071a14"/><stop offset=".42" stop-color="#0e442f"/><stop offset=".75" stop-color="#06170f"/><stop offset="1" stop-color="#020806"/></linearGradient><radialGradient id="mist" cx=".5" cy=".34" r=".52"><stop offset="0" stop-color="#e8fff7" stop-opacity=".42"/><stop offset=".45" stop-color="#8be7bd" stop-opacity=".14"/><stop offset="1" stop-color="#000" stop-opacity="0"/></radialGradient><filter id="b"><feGaussianBlur stdDeviation="18"/></filter></defs><rect width="1080" height="1920" fill="url(#sky)"/><rect width="1080" height="1920" fill="url(#mist)"/><path d="M-50 1920V900c160-100 230-190 330-130 90-215 230-115 338-250 120-150 260-80 380-220 170-205 260-50 430-170v1790z" fill="#082817"/><path d="M-80 1920V1160c155-88 210 4 330-132 98-110 160-14 266-122 142-145 250-42 370-148 120-107 220-20 350-96v1258z" fill="#05170f" opacity=".95"/><path d="M500 220c16 230 0 425-76 575-40 78-70 150-60 252 8 85-45 178-105 270-55 84-70 174-42 318" stroke="#effff9" stroke-opacity=".72" stroke-width="28" fill="none" filter="url(#b)"/><path d="M506 206c14 238-2 430-74 584-38 80-70 150-60 254 8 82-46 175-104 266-54 84-68 177-42 326" stroke="#f7fffc" stroke-width="7" fill="none"/><path d="M714 735c28 122 22 224-28 318-32 60-28 128 8 205" stroke="#d9fff3" stroke-opacity=".38" stroke-width="20" fill="none" filter="url(#b)"/><path d="M0 1920V1360c45-120 80-60 120-170 50-135 96-40 148-154 62-135 115-35 180-150 80-142 142-38 220-130 86-101 154 0 235-95 78-90 130-18 177-68v1327z" fill="#031009"/><ellipse cx="520" cy="930" rx="570" ry="150" fill="#d9fff0" opacity=".22" filter="url(#b)"/><ellipse cx="560" cy="1110" rx="640" ry="120" fill="#7cd8b4" opacity=".18" filter="url(#b)"/><path d="M0 1920V1540c40-70 70-20 102-90 40-88 80-22 120-92 42-76 84-18 132-86 50-70 98-12 150-72 62-72 110-4 170-62 74-72 128 2 196-58 70-62 140-15 210-70v910z" fill="#010805"/></svg>